<svg width="6" height="7" viewBox="0 0 6 7" fill="none" xmlns="http://www.w3.org/2000/svg">
<g style="mix-blend-mode:overlay">
<path d="M1.50195 1.97837C2.17817 1.56607 2.64193 0.839024 2.69654 0C3.67825 0.491005 4.35195 1.5029 4.35195 2.67151C4.35195 3.01558 4.29355 3.34606 4.18608 3.65367C4.6956 3.5005 5.09071 3.08469 5.2127 2.56432C5.70039 3.05079 6.00195 3.72238 6.00195 4.46411C6.00195 5.63487 5.25063 6.63087 4.20195 7C3.15328 6.63087 2.40195 5.63487 2.40195 4.46411C2.40195 4.4344 2.40244 4.40481 2.4034 4.37534C2.02912 4.79689 1.80195 5.35099 1.80195 5.95794C1.80195 6.24783 1.85377 6.52566 1.94869 6.78275C0.831529 6.51288 0.00195312 5.51028 0.00195312 4.31472C0.00195312 3.36229 0.528431 2.53232 1.30737 2.0977L1.50195 1.97837Z" fill="rgba(255, 255, 255, 0.2)"/>
</g>
</svg>
