<svg width="6" height="6" viewBox="0 0 6 6" fill="none" xmlns="http://www.w3.org/2000/svg">
<g style="mix-blend-mode:overlay">
<path d="M3.00195 0C4.6587 0 6.00195 1.34325 6.00195 3C6.00195 4.65675 4.6587 6 3.00195 6C1.3452 6 0.00195312 4.65675 0.00195312 3C0.00195312 1.34325 1.3452 0 3.00195 0ZM3.00195 1.28571C2.78893 1.28571 2.61624 1.4584 2.61624 1.67143V3C2.61624 3.05016 2.62581 3.09809 2.6433 3.14219C2.64548 3.14771 2.6478 3.1532 2.65026 3.15864L2.66143 3.18133L2.66645 3.19049L2.67191 3.19972C2.6777 3.20927 2.68389 3.21855 2.69036 3.22744C2.69455 3.23316 2.69891 3.23879 2.7036 3.24448C2.70891 3.25095 2.71442 3.25724 2.71999 3.26321L2.72455 3.268L3.58635 4.12988L3.62585 4.1644C3.77704 4.27947 3.99376 4.26796 4.13184 4.12988L4.16636 4.09038C4.28142 3.9392 4.26992 3.72248 4.13184 3.5844L3.38724 2.83971L3.38767 1.67143C3.38767 1.4584 3.21498 1.28571 3.00195 1.28571Z" fill="rgba(255, 255, 255, 0.2)"/>
</g>
</svg>
